
<svg xmlns="http://www.w3.org/2000/svg" style="display: none;">
    <symbol id="icon-html" x="0px" y="0px" width="48" height="48" viewBox="0 0 48 48">
        <path fill="#E65100" d="M41,5H7l3,34l14,4l14-4L41,5L41,5z"></path><path fill="#FF6D00" d="M24 8L24 39.9 35.2 36.7 37.7 8z"></path><path fill="#FFF" d="M24,25v-4h8.6l-0.7,11.5L24,35.1v-4.2l4.1-1.4l0.3-4.5H24z M32.9,17l0.3-4H24v4H32.9z"></path><path fill="#EEE" d="M24,30.9v4.2l-7.9-2.6L15.7,27h4l0.2,2.5L24,30.9z M19.1,17H24v-4h-9.1l0.7,12H24v-4h-4.6L19.1,17z"></path>
    </symbol>
    <symbol id="icon-css" x="0px" y="0px" width="48" height="48" viewBox="0 0 48 48">
        <path fill="#0277BD" d="M41,5H7l3,34l14,4l14-4L41,5L41,5z"></path><path fill="#039BE5" d="M24 8L24 39.9 35.2 36.7 37.7 8z"></path><path fill="#FFF" d="M33.1 13L24 13 24 17 28.9 17 28.6 21 24 21 24 25 28.4 25 28.1 29.5 24 30.9 24 35.1 31.9 32.5 32.6 21 32.6 21z"></path><path fill="#EEE" d="M24,13v4h-8.9l-0.3-4H24z M19.4,21l0.2,4H24v-4H19.4z M19.8,27h-4l0.3,5.5l7.9,2.6v-4.2l-4.1-1.4L19.8,27z"></path>
    </symbol>
    <symbol id="icon-vue" x="0px" y="0px" width="48" height="48" viewBox="0 0 48 48">
        <polygon fill="#81c784" points="23.987,17 18.734,8 2.974,8 23.987,44 45,8 29.24,8"></polygon><polygon fill="#455a64" points="29.24,8 23.987,17 18.734,8 11.146,8 23.987,30 36.828,8"></polygon>
    </symbol>
    <symbol id="icon-tailwind" x="0px" y="0px" width="48" height="48" viewBox="0 0 48 48">
        <path fill="#00acc1" d="M24,9.604c-6.4,0-10.4,3.199-12,9.597c2.4-3.199,5.2-4.398,8.4-3.599 c1.826,0.456,3.131,1.781,4.576,3.247C27.328,21.236,30.051,24,36,24c6.4,0,10.4-3.199,12-9.598c-2.4,3.199-5.2,4.399-8.4,3.6 c-1.825-0.456-3.13-1.781-4.575-3.247C32.672,12.367,29.948,9.604,24,9.604L24,9.604z M12,24c-6.4,0-10.4,3.199-12,9.598 c2.4-3.199,5.2-4.399,8.4-3.599c1.825,0.457,3.13,1.781,4.575,3.246c2.353,2.388,5.077,5.152,11.025,5.152 c6.4,0,10.4-3.199,12-9.598c-2.4,3.199-5.2,4.399-8.4,3.599c-1.826-0.456-3.131-1.781-4.576-3.246C20.672,26.764,17.949,24,12,24 L12,24z"></path>
    </symbol>
    <symbol id="icon-jquery" x="0px" y="0px" width="48" height="48" viewBox="0 0 48 48">
        <path d="M 29.867188 3.007813 C 29.761719 3.023438 29.65625 3.054688 29.554688 3.101563 C 28.695313 3.527344 27.71875 4.792969 27.53125 5.042969 C 27.519531 5.058594 27.507813 5.074219 27.5 5.089844 C 26.535156 6.535156 26.019531 8.226563 26 9.988281 C 25.988281 11.308594 26.246094 12.617188 26.769531 13.878906 C 27.988281 16.804688 30.519531 19.226563 33.53125 20.359375 C 33.632813 20.394531 33.730469 20.429688 33.90625 20.492188 C 33.921875 20.5 34.070313 20.546875 34.09375 20.550781 L 34.203125 20.589844 C 34.359375 20.640625 34.519531 20.691406 34.675781 20.722656 C 35.46875 20.882813 36.242188 20.972656 36.96875 20.996094 C 37.09375 20.996094 37.21875 21 37.34375 21 C 42.824219 21 44.949219 17.132813 45.65625 15.84375 C 45.726563 15.71875 45.777344 15.617188 45.824219 15.554688 C 45.824219 15.550781 45.824219 15.550781 45.828125 15.546875 C 46.136719 15.089844 46.019531 14.46875 45.5625 14.15625 C 45.109375 13.847656 44.488281 13.964844 44.175781 14.421875 C 44.175781 14.421875 44.171875 14.421875 44.171875 14.421875 C 42.710938 16.574219 40.210938 17.226563 36.746094 16.367188 C 36.488281 16.304688 36.207031 16.207031 35.957031 16.113281 C 35.628906 15.996094 35.300781 15.859375 34.996094 15.710938 C 34.390625 15.410156 33.820313 15.050781 33.304688 14.652344 C 30.257813 12.289063 29.066406 7.371094 30.847656 4.53125 C 31.085938 4.152344 31.042969 3.660156 30.742188 3.328125 C 30.515625 3.078125 30.1875 2.964844 29.867188 3.007813 Z M 21.007813 5 C 20.78125 4.996094 20.550781 5.070313 20.363281 5.226563 C 18.851563 6.457031 17.304688 8.472656 17.238281 8.554688 C 17.230469 8.570313 17.222656 8.582031 17.210938 8.597656 C 14.476563 12.578125 14.269531 18.242188 16.6875 23.027344 C 17.066406 23.785156 17.496094 24.507813 17.953125 25.171875 L 18.089844 25.367188 C 18.476563 25.933594 18.910156 26.574219 19.464844 27.074219 C 19.65625 27.292969 19.863281 27.503906 20.066406 27.707031 L 20.164063 27.808594 L 20.246094 27.890625 C 20.453125 28.089844 20.664063 28.292969 20.882813 28.488281 C 20.882813 28.488281 20.886719 28.488281 20.886719 28.488281 C 20.902344 28.511719 20.925781 28.527344 20.945313 28.546875 C 21.191406 28.765625 21.441406 28.972656 21.773438 29.234375 L 21.863281 29.300781 C 22.121094 29.507813 22.382813 29.703125 22.652344 29.894531 C 22.679688 29.914063 22.707031 29.933594 22.734375 29.953125 C 22.828125 30.015625 22.921875 30.074219 23.015625 30.140625 L 23.109375 30.203125 L 23.21875 30.273438 C 23.417969 30.40625 23.613281 30.527344 23.890625 30.6875 C 24.070313 30.796875 24.261719 30.90625 24.386719 30.96875 C 24.441406 31 24.5 31.03125 24.636719 31.105469 L 24.941406 31.265625 C 24.957031 31.273438 25.027344 31.304688 25.042969 31.3125 C 25.242188 31.414063 25.449219 31.511719 25.65625 31.605469 L 25.972656 31.746094 C 26.179688 31.835938 26.390625 31.921875 26.648438 32.019531 L 26.765625 32.0625 C 26.773438 32.070313 26.871094 32.105469 26.878906 32.109375 C 27.066406 32.175781 27.257813 32.242188 27.449219 32.304688 L 27.886719 32.449219 C 28.105469 32.523438 28.359375 32.609375 28.636719 32.65625 C 30 32.882813 31.324219 33 32.578125 33 C 32.726563 33 32.875 32.996094 33.019531 32.996094 C 44.058594 32.753906 46.929688 23.375 46.957031 23.28125 C 47.09375 22.808594 46.871094 22.304688 46.425781 22.09375 C 45.980469 21.882813 45.449219 22.03125 45.171875 22.4375 C 42.375 26.523438 37.085938 28.25 31.699219 26.828125 C 31.449219 26.765625 31.207031 26.695313 30.90625 26.597656 C 30.855469 26.582031 30.8125 26.566406 30.730469 26.535156 C 30.554688 26.480469 30.382813 26.421875 30.1875 26.347656 L 29.910156 26.242188 C 29.75 26.179688 29.589844 26.117188 29.394531 26.03125 L 29.265625 25.972656 C 29.027344 25.871094 28.796875 25.757813 28.589844 25.65625 L 28.019531 25.359375 C 27.890625 25.296875 27.777344 25.226563 27.601563 25.121094 L 27.503906 25.066406 L 27.40625 25.007813 C 27.261719 24.921875 27.117188 24.832031 26.984375 24.738281 L 26.890625 24.679688 C 26.882813 24.675781 26.804688 24.621094 26.796875 24.613281 C 26.679688 24.539063 26.566406 24.464844 26.457031 24.394531 C 26.214844 24.222656 25.976563 24.042969 25.699219 23.824219 L 25.589844 23.734375 C 23.011719 21.675781 21.105469 18.925781 20.210938 15.976563 C 19.378906 13.269531 19.996094 9.726563 21.863281 6.5 C 22.105469 6.082031 22.015625 5.550781 21.644531 5.238281 C 21.460938 5.082031 21.234375 5 21.007813 5 Z M 10.003906 8 C 9.765625 8 9.523438 8.085938 9.332031 8.257813 C 7.421875 9.972656 5.992188 12.195313 5.835938 12.449219 C 1.75 18.398438 2.539063 27.644531 5.34375 33.296875 C 5.398438 33.414063 5.457031 33.527344 5.515625 33.640625 L 5.554688 33.703125 C 5.605469 33.816406 5.664063 33.933594 5.683594 33.957031 C 5.714844 34.03125 5.761719 34.113281 5.78125 34.136719 C 5.828125 34.234375 5.875 34.320313 5.960938 34.46875 L 6.28125 35.019531 C 6.328125 35.09375 6.375 35.171875 6.390625 35.199219 C 6.453125 35.300781 6.519531 35.40625 6.585938 35.511719 L 6.742188 35.761719 C 6.789063 35.835938 6.835938 35.902344 6.867188 35.941406 C 7.023438 36.183594 7.179688 36.425781 7.351563 36.65625 C 7.359375 36.667969 7.367188 36.675781 7.375 36.683594 L 7.4375 36.769531 C 7.578125 36.972656 7.722656 37.167969 7.851563 37.328125 L 8.421875 38.050781 C 8.429688 38.058594 8.492188 38.132813 8.496094 38.140625 L 8.578125 38.234375 C 8.75 38.445313 8.933594 38.65625 9.117188 38.859375 C 9.144531 38.890625 9.171875 38.917969 9.199219 38.949219 C 9.375 39.140625 9.554688 39.332031 9.742188 39.53125 L 9.921875 39.703125 C 10.070313 39.859375 10.21875 40.011719 10.375 40.15625 C 10.375 40.160156 10.449219 40.230469 10.449219 40.230469 L 10.605469 40.375 C 10.792969 40.554688 10.988281 40.734375 11.136719 40.859375 C 11.144531 40.871094 11.285156 40.992188 11.296875 41 C 11.480469 41.164063 11.664063 41.320313 11.851563 41.472656 L 12.808594 42.230469 C 12.96875 42.347656 13.132813 42.464844 13.320313 42.601563 C 13.382813 42.648438 13.449219 42.695313 13.515625 42.738281 C 13.542969 42.761719 13.574219 42.785156 13.59375 42.796875 L 14.3125 43.277344 C 14.574219 43.449219 14.835938 43.609375 15.15625 43.800781 L 15.328125 43.898438 C 15.527344 44.015625 15.730469 44.132813 15.921875 44.234375 C 16.035156 44.296875 16.148438 44.351563 16.246094 44.402344 C 16.382813 44.476563 16.53125 44.558594 16.757813 44.667969 C 16.777344 44.679688 16.9375 44.757813 16.957031 44.765625 C 17.183594 44.878906 17.414063 44.984375 17.703125 45.113281 C 17.703125 45.117188 17.796875 45.160156 17.796875 45.160156 C 18.0625 45.273438 18.320313 45.382813 18.660156 45.519531 C 18.714844 45.542969 18.769531 45.5625 18.78125 45.566406 C 19.023438 45.660156 19.277344 45.753906 19.484375 45.828125 C 19.503906 45.835938 19.609375 45.878906 19.628906 45.886719 C 19.90625 45.980469 20.179688 46.070313 20.53125 46.179688 C 20.589844 46.199219 20.652344 46.21875 20.660156 46.21875 L 20.859375 46.28125 C 21.101563 46.355469 21.34375 46.433594 21.605469 46.484375 C 23.464844 46.824219 25.28125 47 27 47 L 27.003906 47 C 41.328125 47 45.890625 35.472656 45.9375 35.355469 C 46.113281 34.890625 45.921875 34.367188 45.484375 34.125 C 45.054688 33.886719 44.507813 34 44.203125 34.394531 C 40.527344 39.234375 33.59375 41.03125 25.65625 39.207031 C 25.464844 39.160156 25.269531 39.105469 25.078125 39.046875 L 24.703125 38.933594 C 24.449219 38.855469 24.195313 38.769531 23.949219 38.683594 C 23.945313 38.683594 23.832031 38.640625 23.832031 38.640625 C 23.613281 38.566406 23.394531 38.480469 23.203125 38.40625 L 22.984375 38.320313 C 22.742188 38.222656 22.5 38.121094 22.265625 38.015625 L 22.128906 37.957031 C 21.917969 37.859375 21.714844 37.765625 21.511719 37.664063 C 21.496094 37.65625 21.335938 37.578125 21.320313 37.574219 C 21.179688 37.503906 21.039063 37.429688 20.859375 37.332031 L 20.042969 36.894531 C 19.960938 36.839844 19.875 36.789063 19.792969 36.746094 C 19.546875 36.59375 19.292969 36.441406 19.042969 36.28125 C 18.984375 36.246094 18.933594 36.207031 18.835938 36.140625 C 18.664063 36.03125 18.496094 35.917969 18.25 35.746094 L 18.152344 35.675781 C 17.984375 35.558594 17.820313 35.433594 17.683594 35.332031 C 17.597656 35.269531 17.511719 35.199219 17.371094 35.09375 C 17.246094 34.996094 17.121094 34.902344 17.003906 34.808594 L 16.785156 34.628906 C 16.601563 34.480469 16.429688 34.324219 16.25 34.171875 C 16.226563 34.148438 16.207031 34.132813 16.179688 34.113281 C 15.980469 33.929688 15.777344 33.746094 15.535156 33.515625 L 14.828125 32.8125 C 14.65625 32.636719 14.484375 32.457031 14.289063 32.242188 C 14.109375 32.042969 13.9375 31.84375 13.707031 31.570313 L 13.285156 31.054688 C 13.234375 30.980469 13.179688 30.90625 13.113281 30.828125 C 12.96875 30.632813 12.824219 30.441406 12.679688 30.238281 C 8.789063 24.878906 7.773438 13.691406 10.804688 9.59375 C 11.109375 9.183594 11.054688 8.605469 10.671875 8.257813 C 10.484375 8.085938 10.242188 8 10.003906 8 Z"></path>
    </symbol>
    <symbol id="icon-sass" x="0px" y="0px" width="48" height="48" viewBox="0 0 48 48">
        <path fill="#f06292" d="M39.867,25.956c-1.538,0.008-2.87,0.377-3.986,0.928c-0.408-0.815-0.822-1.532-0.891-2.065	c-0.081-0.622-0.175-0.994-0.077-1.735c0.098-0.741,0.527-1.791,0.521-1.87c-0.006-0.079-0.096-0.456-0.983-0.463	c-0.887-0.006-1.646,0.171-1.735,0.405c-0.089,0.234-0.26,0.761-0.366,1.311c-0.155,0.804-1.771,3.673-2.688,5.173	c-0.3-0.586-0.555-1.102-0.608-1.51c-0.081-0.622-0.175-0.994-0.077-1.735c0.098-0.741,0.527-1.791,0.521-1.87	c-0.006-0.079-0.096-0.456-0.983-0.463c-0.887-0.006-1.646,0.171-1.735,0.405c-0.089,0.234-0.185,0.781-0.366,1.311	c-0.182,0.529-2.329,5.314-2.892,6.555c-0.287,0.632-0.536,1.14-0.712,1.486c-0.001-0.001-0.001-0.002-0.001-0.002	s-0.011,0.023-0.029,0.062c-0.151,0.295-0.24,0.458-0.24,0.458s0.001,0.002,0.003,0.006c-0.12,0.217-0.248,0.418-0.311,0.418	c-0.044,0-0.133-0.577,0.019-1.369c0.32-1.66,1.087-4.248,1.08-4.338c-0.004-0.046,0.143-0.497-0.501-0.733	c-0.626-0.229-0.849,0.153-0.906,0.154c-0.055,0.001-0.096,0.135-0.096,0.135s0.697-2.911-1.33-2.911	c-1.268,0-3.024,1.387-3.889,2.644c-0.546,0.298-1.715,0.936-2.954,1.617c-0.476,0.262-0.962,0.529-1.423,0.783	c-0.031-0.035-0.063-0.069-0.095-0.104c-2.459-2.623-7.003-4.478-6.811-8.005c0.07-1.282,0.516-4.658,8.733-8.752	c6.731-3.354,12.12-2.431,13.051-0.386c1.33,2.923-2.88,8.354-9.87,9.138c-2.663,0.299-4.066-0.734-4.415-1.118	c-0.367-0.405-0.422-0.423-0.559-0.347c-0.223,0.124-0.082,0.481,0,0.694c0.209,0.543,1.065,1.506,2.525,1.986	c1.285,0.422,4.412,0.653,8.193-0.81c4.236-1.638,7.543-6.196,6.571-10.005c-0.988-3.874-7.412-5.148-13.492-2.988	C12.44,9.332,8.523,11.35,5.706,13.984c-3.349,3.132-3.883,5.859-3.663,6.998c0.782,4.048,6.361,6.684,8.595,8.637	c-0.11,0.061-0.214,0.118-0.308,0.17c-1.12,0.554-5.373,2.78-6.437,5.131c-1.207,2.667,0.192,4.581,1.118,4.839	c2.869,0.798,5.813-0.638,7.396-2.998c1.582-2.359,1.389-5.432,0.663-6.834c-0.009-0.017-0.019-0.034-0.028-0.052	c0.289-0.171,0.584-0.345,0.876-0.517c0.57-0.335,1.13-0.647,1.615-0.911c-0.272,0.744-0.471,1.637-0.574,2.926	c-0.122,1.514,0.499,3.471,1.311,4.241c0.358,0.339,0.788,0.347,1.06,0.347c0.945,0,1.376-0.786,1.851-1.716	c0.582-1.14,1.099-2.468,1.099-2.468s-0.648,3.586,1.118,3.586c0.644,0,1.291-0.835,1.58-1.26c0.001,0.005,0.001,0.007,0.001,0.007	s0.017-0.028,0.05-0.083c0.067-0.102,0.105-0.167,0.105-0.167s0.001-0.007,0.003-0.019c0.259-0.449,0.833-1.473,1.693-3.162	c1.112-2.182,2.178-4.916,2.178-4.916s0.099,0.668,0.424,1.774c0.191,0.65,0.597,1.369,0.918,2.059	c-0.258,0.358-0.416,0.563-0.416,0.563s0.001,0.004,0.004,0.011c-0.206,0.274-0.437,0.569-0.679,0.857	c-0.878,1.045-1.923,2.239-2.063,2.583c-0.165,0.406-0.126,0.704,0.193,0.945c0.233,0.175,0.647,0.203,1.08,0.174	c0.789-0.053,1.343-0.249,1.617-0.368c0.427-0.151,0.924-0.388,1.39-0.731c0.861-0.633,1.38-1.538,1.33-2.738	c-0.028-0.661-0.238-1.316-0.505-1.934c0.078-0.112,0.156-0.226,0.235-0.34c1.357-1.984,2.41-4.164,2.41-4.164	s0.099,0.668,0.424,1.774c0.164,0.559,0.489,1.17,0.781,1.768c-1.276,1.037-2.067,2.242-2.342,3.032	c-0.508,1.462-0.11,2.124,0.636,2.275c0.338,0.068,0.816-0.087,1.175-0.239c0.447-0.148,0.984-0.395,1.486-0.764	c0.861-0.633,1.689-1.519,1.639-2.718c-0.023-0.546-0.171-1.088-0.372-1.608c1.082-0.451,2.482-0.701,4.266-0.493	c3.827,0.447,4.577,2.836,4.434,3.836c-0.144,1-0.946,1.55-1.215,1.716c-0.268,0.166-0.35,0.224-0.328,0.347	c0.033,0.179,0.157,0.173,0.386,0.134c0.315-0.053,2.009-0.813,2.082-2.659C46.089,28.509,43.844,25.935,39.867,25.956z M10.37,35.9	c-1.268,1.383-3.038,1.905-3.798,1.465c-0.82-0.475-0.495-2.511,1.06-3.979c0.948-0.894,2.172-1.718,2.984-2.225	c0.185-0.111,0.456-0.274,0.786-0.472c0.055-0.031,0.086-0.048,0.086-0.048l-0.001-0.002c0.064-0.038,0.129-0.077,0.196-0.118	C12.25,32.61,11.701,34.449,10.37,35.9z M19.605,29.623c-0.441,1.076-1.365,3.83-1.928,3.682c-0.483-0.127-0.777-2.22-0.096-4.28	c0.342-1.037,1.074-2.276,1.504-2.757c0.692-0.774,1.454-1.027,1.639-0.713C20.959,25.955,19.882,28.948,19.605,29.623z M27.234,33.263c-0.187,0.098-0.359,0.159-0.438,0.112c-0.059-0.035,0.077-0.164,0.077-0.164s0.954-1.027,1.33-1.494	c0.219-0.272,0.472-0.595,0.748-0.955c0.002,0.036,0.003,0.072,0.003,0.107C28.952,32.099,27.764,32.929,27.234,33.263z M33.111,31.923c-0.14-0.099-0.116-0.42,0.343-1.421c0.18-0.393,0.592-1.054,1.306-1.686c0.083,0.26,0.133,0.509,0.132,0.741	C34.883,31.105,33.779,31.683,33.111,31.923z"></path>
    </symbol>
    <symbol id="icon-bootstrap" x="0px" y="0px" width="48" height="48" viewBox="0 0 48 48">
        <path fill="#673ab7" d="M42,37c0,2.762-2.238,5-5,5H11c-2.761,0-5-2.238-5-5V11c0-2.762,2.239-5,5-5h26c2.762,0,5,2.238,5,5 V37z"></path><path fill="#fff" d="M33.03,25.6c-0.65-0.9-1.59-1.52-2.8-1.85c0,0,1.02-0.37,1.94-1.75c0.55-0.88,0.83-1.94,0.83-3.18 c0-2.15-0.78-3.8-2.34-4.93C29.1,12.76,27.34,12,24.35,12H15v24h10.43c2.83-0.02,4.96-0.63,6.41-1.8c1.44-1.19,2.16-2.95,2.16-5.3 C34,27.6,33.68,26.5,33.03,25.6z M21,16c0,0,4.17,0,4.25,0c1.52,0,2.75,1.23,2.75,2.75c0,1.52-1.23,2.75-2.75,2.75 c-0.08,0-4.25,0-4.25,0V16z M26,32h-5v-6h5c1.66,0,3,1.34,3,3C29,30.66,27.66,32,26,32z"></path>
    </symbol>
    <symbol id="icon-git" x="0px" y="0px" width="48" height="48" viewBox="0 0 48 48">
        <path fill="#F4511E" d="M42.2,22.1L25.9,5.8C25.4,5.3,24.7,5,24,5c0,0,0,0,0,0c-0.7,0-1.4,0.3-1.9,0.8l-3.5,3.5l4.1,4.1c0.4-0.2,0.8-0.3,1.3-0.3c1.7,0,3,1.3,3,3c0,0.5-0.1,0.9-0.3,1.3l4,4c0.4-0.2,0.8-0.3,1.3-0.3c1.7,0,3,1.3,3,3s-1.3,3-3,3c-1.7,0-3-1.3-3-3c0-0.5,0.1-0.9,0.3-1.3l-4-4c-0.1,0-0.2,0.1-0.3,0.1v10.4c1.2,0.4,2,1.5,2,2.8c0,1.7-1.3,3-3,3s-3-1.3-3-3c0-1.3,0.8-2.4,2-2.8V18.8c-1.2-0.4-2-1.5-2-2.8c0-0.5,0.1-0.9,0.3-1.3l-4.1-4.1L5.8,22.1C5.3,22.6,5,23.3,5,24c0,0.7,0.3,1.4,0.8,1.9l16.3,16.3c0,0,0,0,0,0c0.5,0.5,1.2,0.8,1.9,0.8s1.4-0.3,1.9-0.8l16.3-16.3c0.5-0.5,0.8-1.2,0.8-1.9C43,23.3,42.7,22.6,42.2,22.1z"></path>
    </symbol>
    <symbol id="icon-github" x="0px" y="0px" width="48" height="48" viewBox="0 0 64 64">
        <path d="M32,10c12.15,0,22,9.85,22,22c0,9.768-6.369,18.045-15.179,20.916c0.002-0.008,0.006-0.021,0.006-0.021	s-1.485-0.696-1.453-1.938c0.035-1.367,0-4.556,0-5.727c0-2.01-1.272-3.434-1.272-3.434s9.977,0.112,9.977-10.533	c0-4.107-2.147-6.245-2.147-6.245s1.128-4.385-0.39-6.245c-1.701-0.184-4.749,1.626-6.05,2.472c0,0-2.062-0.846-5.492-0.846	c-3.43,0-5.492,0.846-5.492,0.846c-1.301-0.846-4.348-2.656-6.05-2.472c-1.518,1.86-0.39,6.245-0.39,6.245s-2.147,2.137-2.147,6.245	c0,10.645,9.977,10.533,9.977,10.533s-1.005,1.136-1.225,2.806c-0.696,0.236-1.721,0.528-2.549,0.528	c-2.165,0-3.812-2.105-4.416-3.078c-0.595-0.96-1.815-1.766-2.953-1.766c-0.749,0-1.115,0.375-1.115,0.803s1.05,0.727,1.743,1.521	c1.461,1.674,1.435,5.438,6.641,5.438c0.565,0,1.719-0.139,2.588-0.256c-0.005,1.185-0.007,2.436,0.012,3.167	c0.031,1.242-1.453,1.938-1.453,1.938s0.004,0.012,0.006,0.021C16.369,50.045,10,41.768,10,32C10,19.85,19.85,10,32,10z"></path>
    </symbol>
    <symbol id="icon-php" x="0px" y="0px" width="48" height="48" viewBox="0 0 30 30">
        <path fill="#dcd5f2" d="M15,22.5c-7.995,0-14.5-3.364-14.5-7.5S7.005,7.5,15,7.5s14.5,3.364,14.5,7.5S22.995,22.5,15,22.5z"></path><path fill="#8b75a1" d="M15,8c7.589,0,14,3.206,14,7s-6.411,7-14,7S1,18.794,1,15S7.411,8,15,8 M15,7C6.716,7,0,10.582,0,15 s6.716,8,15,8s15-3.582,15-8S23.284,7,15,7L15,7z"></path><path fill="#36404d" d="M9.417 13c.598 0 1.116.203 1.384.543.192.244.245.555.157.927C10.69 15.599 10.216 16 8.089 16H6.58l.563-3H9.417M9.417 12H6.313L5 19h1l.396-2h1.693c2.199 0 3.395-.417 3.842-2.299C12.316 13.084 11.039 12 9.417 12L9.417 12zM22.417 13c.598 0 1.116.203 1.384.543.192.244.245.555.157.927C23.69 15.599 23.216 16 21.089 16H19.58l.563-3H22.417M22.417 12h-3.104L18 19h1l.396-2h1.693c2.199 0 3.395-.417 3.842-2.299C25.316 13.084 24.039 12 22.417 12L22.417 12z"></path><g><path fill="#36404d" d="M17.652,12.424C17.323,12.122,16.742,12,15.875,12h-1.848l0.451-2h-1.017L12,17h1.016l0.841-4h0.171 h1.848c0.91,0,1.094,0.155,1.096,0.155c0.019,0.03,0.058,0.194-0.008,0.532L16.288,17h1.046l0.61-3.121 C18.075,13.212,17.976,12.722,17.652,12.424z"></path></g>
    </symbol>
    <symbol id="icon-javascript" x="0px" y="0px" width="48" height="48" viewBox="0 0 48 48">
        <path fill="#ffd600" d="M6,42V6h36v36H6z"></path><path fill="#000001" d="M29.538 32.947c.692 1.124 1.444 2.201 3.037 2.201 1.338 0 2.04-.665 2.04-1.585 0-1.101-.726-1.492-2.198-2.133l-.807-.344c-2.329-.988-3.878-2.226-3.878-4.841 0-2.41 1.845-4.244 4.728-4.244 2.053 0 3.528.711 4.592 2.573l-2.514 1.607c-.553-.988-1.151-1.377-2.078-1.377-.946 0-1.545.597-1.545 1.377 0 .964.6 1.354 1.985 1.951l.807.344C36.452 29.645 38 30.839 38 33.523 38 36.415 35.716 38 32.65 38c-2.999 0-4.702-1.505-5.65-3.368L29.538 32.947zM17.952 33.029c.506.906 1.275 1.603 2.381 1.603 1.058 0 1.667-.418 1.667-2.043V22h3.333v11.101c0 3.367-1.953 4.899-4.805 4.899-2.577 0-4.437-1.746-5.195-3.368L17.952 33.029z"></path>
    </symbol>
    <symbol id="icon-python" x="0px" y="0px" width="48" height="48" viewBox="0 0 48 48">
        <path fill="#0277BD" d="M24.047,5c-1.555,0.005-2.633,0.142-3.936,0.367c-3.848,0.67-4.549,2.077-4.549,4.67V14h9v2H15.22h-4.35c-2.636,0-4.943,1.242-5.674,4.219c-0.826,3.417-0.863,5.557,0,9.125C5.851,32.005,7.294,34,9.931,34h3.632v-5.104c0-2.966,2.686-5.896,5.764-5.896h7.236c2.523,0,5-1.862,5-4.377v-8.586c0-2.439-1.759-4.263-4.218-4.672C27.406,5.359,25.589,4.994,24.047,5z M19.063,9c0.821,0,1.5,0.677,1.5,1.502c0,0.833-0.679,1.498-1.5,1.498c-0.837,0-1.5-0.664-1.5-1.498C17.563,9.68,18.226,9,19.063,9z"></path><path fill="#FFC107" d="M23.078,43c1.555-0.005,2.633-0.142,3.936-0.367c3.848-0.67,4.549-2.077,4.549-4.67V34h-9v-2h9.343h4.35c2.636,0,4.943-1.242,5.674-4.219c0.826-3.417,0.863-5.557,0-9.125C41.274,15.995,39.831,14,37.194,14h-3.632v5.104c0,2.966-2.686,5.896-5.764,5.896h-7.236c-2.523,0-5,1.862-5,4.377v8.586c0,2.439,1.759,4.263,4.218,4.672C19.719,42.641,21.536,43.006,23.078,43z M28.063,39c-0.821,0-1.5-0.677-1.5-1.502c0-0.833,0.679-1.498,1.5-1.498c0.837,0,1.5,0.664,1.5,1.498C29.563,38.32,28.899,39,28.063,39z"></path>
    </symbol>
    <symbol id="icon-mysql" x="0px" y="0px" width="50" height="50" viewBox="0 0 50 50">
        <path d="M 31.167969 8 C 30.699219 7.988281 30.289063 8.167969 30.078125 8.6875 C 29.71875 9.558594 30.613281 10.410156 30.933594 10.855469 C 31.15625 11.164063 31.445313 11.511719 31.605469 11.859375 C 31.710938 12.089844 31.726563 12.320313 31.816406 12.5625 C 32.039063 13.160156 32.394531 13.839844 32.679688 14.394531 C 32.824219 14.675781 32.984375 14.96875 33.167969 15.21875 C 33.28125 15.371094 33.472656 15.441406 33.503906 15.675781 C 33.316406 15.941406 33.304688 16.351563 33.199219 16.6875 C 32.722656 18.191406 32.902344 20.0625 33.59375 21.171875 C 33.808594 21.515625 34.3125 22.246094 35 21.96875 C 35.601563 21.722656 35.46875 20.960938 35.640625 20.285156 C 35.679688 20.136719 35.65625 20.023438 35.734375 19.921875 L 35.734375 19.953125 C 35.914063 20.320313 36.097656 20.6875 36.28125 21.050781 C 36.691406 21.707031 37.414063 22.390625 38.023438 22.855469 C 38.339844 23.09375 38.589844 23.507813 39 23.648438 L 39 23.617188 L 38.96875 23.617188 C 38.890625 23.492188 38.765625 23.441406 38.664063 23.34375 C 38.425781 23.109375 38.160156 22.816406 37.964844 22.546875 C 37.40625 21.792969 36.914063 20.964844 36.46875 20.105469 C 36.253906 19.695313 36.066406 19.242188 35.886719 18.824219 C 35.816406 18.660156 35.816406 18.417969 35.671875 18.332031 C 35.472656 18.640625 35.183594 18.886719 35.03125 19.25 C 34.789063 19.828125 34.753906 20.535156 34.664063 21.265625 C 34.609375 21.285156 34.632813 21.269531 34.605469 21.296875 C 34.179688 21.191406 34.027344 20.753906 33.871094 20.378906 C 33.472656 19.429688 33.394531 17.898438 33.75 16.808594 C 33.839844 16.523438 34.25 15.632813 34.085938 15.371094 C 34.007813 15.109375 33.742188 14.960938 33.597656 14.761719 C 33.414063 14.515625 33.234375 14.191406 33.109375 13.90625 C 32.78125 13.164063 32.472656 12.304688 32.125 11.554688 C 31.960938 11.195313 31.683594 10.835938 31.453125 10.515625 C 31.199219 10.164063 30.917969 9.90625 30.71875 9.476563 C 30.652344 9.328125 30.554688 9.085938 30.660156 8.929688 C 30.691406 8.824219 30.738281 8.78125 30.84375 8.746094 C 31.019531 8.609375 31.511719 8.789063 31.699219 8.867188 C 32.1875 9.070313 32.597656 9.265625 33.011719 9.539063 C 33.210938 9.671875 33.410156 9.925781 33.652344 10 L 33.925781 10 C 34.359375 10.097656 34.839844 10.027344 35.238281 10.152344 C 35.949219 10.367188 36.585938 10.703125 37.160156 11.066406 C 38.921875 12.175781 40.363281 13.757813 41.34375 15.644531 C 41.503906 15.949219 41.574219 16.242188 41.714844 16.5625 C 41.992188 17.210938 42.347656 17.882813 42.628906 18.515625 C 42.90625 19.152344 43.179688 19.789063 43.574219 20.316406 C 43.78125 20.59375 44.585938 20.746094 44.949219 20.898438 C 45.203125 21.007813 45.625 21.121094 45.863281 21.265625 C 46.328125 21.542969 46.773438 21.875 47.207031 22.183594 C 47.425781 22.335938 48.089844 22.667969 48.125 22.945313 C 47.050781 22.917969 46.230469 23.015625 45.53125 23.3125 C 45.332031 23.398438 45.011719 23.398438 44.980469 23.648438 C 45.085938 23.761719 45.105469 23.933594 45.191406 24.074219 C 45.359375 24.34375 45.640625 24.707031 45.894531 24.898438 C 46.171875 25.105469 46.453125 25.328125 46.75 25.511719 C 47.273438 25.828125 47.859375 26.011719 48.367188 26.332031 C 48.664063 26.523438 48.964844 26.761719 49.253906 26.972656 C 49.398438 27.082031 49.492188 27.246094 49.679688 27.3125 L 49.679688 27.28125 C 49.582031 27.15625 49.558594 26.984375 49.46875 26.855469 L 49.066406 26.453125 C 48.679688 25.941406 48.1875 25.488281 47.664063 25.113281 C 47.246094 24.8125 46.3125 24.40625 46.140625 23.921875 L 46.109375 23.890625 C 46.402344 23.859375 46.75 23.75 47.023438 23.675781 C 47.484375 23.554688 47.890625 23.585938 48.363281 23.464844 C 48.578125 23.402344 48.792969 23.339844 49.007813 23.28125 L 49.007813 23.15625 C 48.769531 22.914063 48.597656 22.585938 48.335938 22.363281 C 47.652344 21.78125 46.90625 21.199219 46.136719 20.714844 C 45.710938 20.445313 45.183594 20.269531 44.734375 20.042969 C 44.582031 19.964844 44.316406 19.925781 44.214844 19.796875 C 43.976563 19.496094 43.847656 19.113281 43.664063 18.761719 C 43.28125 18.023438 42.90625 17.21875 42.566406 16.441406 C 42.335938 15.914063 42.183594 15.390625 41.894531 14.914063 C 40.507813 12.636719 39.015625 11.257813 36.703125 9.90625 C 36.210938 9.617188 35.621094 9.507813 34.996094 9.359375 C 34.65625 9.335938 34.324219 9.316406 33.984375 9.296875 C 33.78125 9.210938 33.566406 8.960938 33.375 8.835938 C 32.894531 8.535156 31.949219 8.011719 31.167969 8 Z M 34.476563 11.3125 C 34.253906 11.308594 34.09375 11.339844 33.925781 11.375 L 33.925781 11.40625 L 33.957031 11.40625 C 34.0625 11.625 34.253906 11.765625 34.386719 11.953125 C 34.488281 12.167969 34.585938 12.382813 34.6875 12.597656 L 34.71875 12.566406 C 34.90625 12.433594 34.996094 12.21875 34.996094 11.894531 C 34.917969 11.816406 34.90625 11.714844 34.84375 11.621094 C 34.753906 11.492188 34.585938 11.421875 34.476563 11.3125 Z M 1.867188 23.996094 C 1.566406 24.007813 1.238281 24.066406 0.882813 24.179688 C 0.289063 24.359375 -0.00390625 24.714844 -0.00390625 25.4375 L -0.00390625 33 L 2 33 L 2 25.621094 L 4.777344 31.929688 C 5.121094 32.714844 5.589844 32.996094 6.507813 32.996094 C 7.429688 32.996094 7.878906 32.714844 8.222656 31.929688 L 11 25.78125 L 11 33 L 13 33 L 13 25.4375 C 13 24.714844 12.710938 24.359375 12.113281 24.179688 C 10.691406 23.730469 9.734375 24.117188 9.304688 25.089844 L 6.453125 31.503906 L 3.695313 25.089844 C 3.382813 24.359375 2.757813 23.960938 1.867188 23.996094 Z M 26.246094 24 C 25.457031 24 23 24.09375 23 26 L 23 27.234375 C 23 28.109375 23.769531 28.824219 25.4375 29 C 25.625 29.011719 25.8125 29.027344 26 29.027344 C 26 29.027344 27.945313 28.988281 28 29 C 29.125 29 29 29.875 29 30 L 29 31 C 29 31.136719 28.96875 32 27.988281 32 L 23 32 L 23 33 L 28.007813 33 C 28.664063 33 29.300781 32.863281 29.808594 32.625 C 30.652344 32.238281 31 31.714844 31 31.027344 L 31 29.597656 C 31 28.0625 29.09375 28 28 28 L 26 28 C 25.214844 28 25.09375 27.523438 25 27 L 25 26 C 25.09375 25.601563 25.269531 25.0625 25.964844 25 L 31 25 L 31 24 Z M 33.980469 24 C 32.503906 24.203125 31.984375 24.9375 31.984375 26 L 31.984375 31 C 31.984375 31.972656 32.527344 32.558594 33.644531 32.863281 C 34.019531 32.96875 34.359375 33.011719 34.679688 33.011719 L 36.90625 33 L 38.214844 33 L 39.328125 34 L 41.578125 34 L 40.03125 32.605469 C 40.757813 32.304688 40.984375 31.84375 40.984375 30.980469 L 40.984375 26 C 40.984375 24.9375 40.292969 24.203125 38.816406 24 Z M 42 24 L 42 30.957031 C 42 32.164063 42.683594 32.84375 44.492188 32.980469 C 44.660156 32.988281 44.832031 33 45 33 L 50 33 L 50 32 L 45.378906 32 C 44.347656 32 44 31.566406 44 30.949219 L 44 24 Z M 35.171875 25 L 37.746094 25 C 38.425781 25 38.882813 25.546875 38.984375 26 C 38.984375 26 39 30.65625 39 31 C 39 31.34375 38.808594 31.5 38.808594 31.5 L 38.265625 31 L 36 31 L 37.113281 32 L 35.171875 32 C 34.476563 32 34.085938 31.484375 33.984375 31 L 33.984375 26.101563 C 33.984375 25.570313 34.390625 25 35.171875 25 Z M 14 27 C 14.039063 27.039063 14 31.261719 14 31.34375 C 14.015625 32.21875 15.125 32.984375 16.863281 33 L 20 33 L 20 33.066406 C 20 33.253906 20.136719 33.878906 19 34 C 18.988281 34 14.011719 34 14 34 L 14 35 L 19.214844 35 C 20.097656 34.972656 22.011719 34.773438 22 33.242188 C 22 33.214844 22.007813 27 22 27 L 20 27 L 20 32 C 19.96875 32 17.523438 32.007813 17.03125 32 C 16.066406 31.984375 15.984375 31.433594 16 31.222656 L 16 27 Z"></path>
    </symbol>
    <symbol id="icon-vscode" x="0px" y="0px" width="48" height="48" viewBox="0 0 48 48">
        <path fill="#29b6f6" d="M44,11.11v25.78c0,1.27-0.79,2.4-1.98,2.82l-8.82,4.14L34,33V15L33.2,4.15l8.82,4.14 C43.21,8.71,44,9.84,44,11.11z"></path><path fill="#0277bd" d="M9,33.896L34,15V5.353c0-1.198-1.482-1.758-2.275-0.86L4.658,29.239 c-0.9,0.83-0.849,2.267,0.107,3.032c0,0,1.324,1.232,1.803,1.574C7.304,34.37,8.271,34.43,9,33.896z"></path><path fill="#0288d1" d="M9,14.104L34,33v9.647c0,1.198-1.482,1.758-2.275,0.86L4.658,18.761 c-0.9-0.83-0.849-2.267,0.107-3.032c0,0,1.324-1.232,1.803-1.574C7.304,13.63,8.271,13.57,9,14.104z"></path>
    </symbol>
    <symbol id="icon-arrow" viewBox="0 0 448 512">
        <path fill="currentColor" d="M34.9 289.5l-22.2-22.2c-9.4-9.4-9.4-24.6 0-33.9L207 39c9.4-9.4 24.6-9.4 33.9 0l194.3 194.3c9.4 9.4 9.4 24.6 0 33.9L413 289.4c-9.5 9.5-25 9.3-34.3-.4L264 168.6V456c0 13.3-10.7 24-24 24h-32c-13.3 0-24-10.7-24-24V168.6L69.2 289.1c-9.3 9.8-24.8 10-34.3.4z"></path>
    </symbol>
</svg>
